<svg width="207" height="320" viewBox="0 0 207 320" fill="none" xmlns="http://www.w3.org/2000/svg">
<rect width="207" height="320" fill="#FCF7EE"/>
<path d="M75.8 101.842H120V125.789H126.8V101.842C126.8 98.0687 123.75 95 120 95H75.8C72.0498 95 69 98.0687 69 101.842V142.895C69 146.668 72.0498 149.737 75.8 149.737H103V142.895H75.8V101.842Z" fill="#9F624F"/>
<path d="M89.4 122.368L79.2 136.053H116.6L103 115.526L92.8 129.211L89.4 122.368Z" fill="#9F624F"/>
<path d="M126.8 132.632H120V142.895H109.8V149.737H120V160H126.8V149.737H137V142.895H126.8V132.632Z" fill="#9F624F"/>
<path d="M45.3334 181.625V193H42.9975V181.625H45.3334ZM49.8081 186.297V193H47.5503V184.547H49.6675L49.8081 186.297ZM49.4956 188.477H48.8706C48.8706 187.888 48.9409 187.346 49.0816 186.852C49.2274 186.352 49.4383 185.919 49.7144 185.555C49.9956 185.185 50.342 184.898 50.7534 184.695C51.1649 184.492 51.6415 184.391 52.1831 184.391C52.5581 184.391 52.9019 184.448 53.2144 184.562C53.5269 184.672 53.7951 184.846 54.0191 185.086C54.2482 185.32 54.4253 185.628 54.5503 186.008C54.6753 186.383 54.7378 186.833 54.7378 187.359V193H52.4878V187.609C52.4878 187.224 52.4357 186.927 52.3316 186.719C52.2274 186.51 52.079 186.365 51.8863 186.281C51.6988 186.198 51.4722 186.156 51.2066 186.156C50.9149 186.156 50.6597 186.216 50.4409 186.336C50.2274 186.456 50.0503 186.622 49.9097 186.836C49.7691 187.044 49.6649 187.289 49.5972 187.57C49.5295 187.852 49.4956 188.154 49.4956 188.477ZM54.5269 188.219L53.7222 188.32C53.7222 187.768 53.7899 187.255 53.9253 186.781C54.0659 186.307 54.2717 185.891 54.5425 185.531C54.8185 185.172 55.1597 184.893 55.5659 184.695C55.9722 184.492 56.4409 184.391 56.9722 184.391C57.3784 184.391 57.7482 184.451 58.0816 184.57C58.4149 184.685 58.6988 184.87 58.9331 185.125C59.1727 185.375 59.355 185.703 59.48 186.109C59.6102 186.516 59.6753 187.013 59.6753 187.602V193H57.4175V187.602C57.4175 187.211 57.3654 186.914 57.2613 186.711C57.1623 186.503 57.0165 186.359 56.8238 186.281C56.6363 186.198 56.4123 186.156 56.1519 186.156C55.881 186.156 55.6441 186.211 55.4409 186.32C55.2378 186.424 55.0685 186.57 54.9331 186.758C54.7977 186.945 54.6961 187.164 54.6284 187.414C54.5607 187.659 54.5269 187.927 54.5269 188.219ZM66.15 191.094V187.328C66.15 187.057 66.1057 186.826 66.0172 186.633C65.9286 186.435 65.7906 186.281 65.6031 186.172C65.4208 186.062 65.1839 186.008 64.8922 186.008C64.6422 186.008 64.426 186.052 64.2438 186.141C64.0615 186.224 63.9208 186.346 63.8219 186.508C63.7229 186.664 63.6734 186.849 63.6734 187.062H61.4234C61.4234 186.703 61.5068 186.362 61.6734 186.039C61.8401 185.716 62.0823 185.432 62.4 185.188C62.7177 184.938 63.0953 184.742 63.5328 184.602C63.9755 184.461 64.4703 184.391 65.0172 184.391C65.6734 184.391 66.2568 184.5 66.7672 184.719C67.2776 184.938 67.6786 185.266 67.9703 185.703C68.2672 186.141 68.4156 186.688 68.4156 187.344V190.961C68.4156 191.424 68.4443 191.805 68.5016 192.102C68.5589 192.393 68.6422 192.648 68.7516 192.867V193H66.4781C66.3688 192.771 66.2854 192.484 66.2281 192.141C66.176 191.792 66.15 191.443 66.15 191.094ZM66.4469 187.852L66.4625 189.125H65.2047C64.9078 189.125 64.65 189.159 64.4313 189.227C64.2125 189.294 64.0328 189.391 63.8922 189.516C63.7516 189.635 63.6474 189.776 63.5797 189.938C63.5172 190.099 63.4859 190.276 63.4859 190.469C63.4859 190.661 63.5302 190.836 63.6188 190.992C63.7073 191.143 63.8349 191.263 64.0016 191.352C64.1682 191.435 64.3635 191.477 64.5875 191.477C64.926 191.477 65.2203 191.409 65.4703 191.273C65.7203 191.138 65.913 190.971 66.0484 190.773C66.1891 190.576 66.262 190.388 66.2672 190.211L66.8609 191.164C66.7776 191.378 66.663 191.599 66.5172 191.828C66.3766 192.057 66.1969 192.273 65.9781 192.477C65.7594 192.674 65.4964 192.839 65.1891 192.969C64.8818 193.094 64.5172 193.156 64.0953 193.156C63.5589 193.156 63.0719 193.049 62.6344 192.836C62.2021 192.617 61.8583 192.318 61.6031 191.938C61.3531 191.552 61.2281 191.115 61.2281 190.625C61.2281 190.182 61.3115 189.789 61.4781 189.445C61.6448 189.102 61.8896 188.812 62.2125 188.578C62.5406 188.339 62.9495 188.159 63.4391 188.039C63.9286 187.914 64.4964 187.852 65.1422 187.852H66.4469ZM75.6716 184.547H77.7106V192.719C77.7106 193.49 77.5387 194.143 77.195 194.68C76.8565 195.221 76.3825 195.63 75.7731 195.906C75.1637 196.188 74.4554 196.328 73.6481 196.328C73.294 196.328 72.919 196.281 72.5231 196.188C72.1325 196.094 71.7575 195.948 71.3981 195.75C71.044 195.552 70.7471 195.302 70.5075 195L71.4997 193.672C71.7601 193.974 72.0622 194.208 72.4059 194.375C72.7497 194.547 73.1299 194.633 73.5466 194.633C73.9528 194.633 74.2966 194.557 74.5778 194.406C74.8591 194.26 75.0752 194.044 75.2262 193.758C75.3773 193.477 75.4528 193.135 75.4528 192.734V186.5L75.6716 184.547ZM69.9841 188.875V188.711C69.9841 188.065 70.0622 187.479 70.2184 186.953C70.3799 186.422 70.6065 185.966 70.8981 185.586C71.195 185.206 71.5544 184.911 71.9762 184.703C72.3981 184.495 72.8747 184.391 73.4059 184.391C73.9684 184.391 74.4398 184.495 74.82 184.703C75.2002 184.911 75.5127 185.208 75.7575 185.594C76.0023 185.974 76.1924 186.424 76.3278 186.945C76.4684 187.461 76.5778 188.026 76.6559 188.641V189C76.5778 189.589 76.4606 190.135 76.3044 190.641C76.1481 191.146 75.9424 191.589 75.6872 191.969C75.432 192.344 75.1143 192.635 74.7341 192.844C74.3591 193.052 73.9111 193.156 73.3903 193.156C72.8695 193.156 72.3981 193.049 71.9762 192.836C71.5596 192.622 71.2028 192.323 70.9059 191.938C70.6091 191.552 70.3799 191.099 70.2184 190.578C70.0622 190.057 69.9841 189.49 69.9841 188.875ZM72.2341 188.711V188.875C72.2341 189.224 72.2679 189.549 72.3356 189.852C72.4033 190.154 72.5075 190.422 72.6481 190.656C72.794 190.885 72.9736 191.065 73.1872 191.195C73.4059 191.32 73.6637 191.383 73.9606 191.383C74.3721 191.383 74.708 191.297 74.9684 191.125C75.2289 190.948 75.4242 190.706 75.5544 190.398C75.6846 190.091 75.7601 189.737 75.7809 189.336V188.312C75.7705 187.984 75.7262 187.69 75.6481 187.43C75.57 187.164 75.4606 186.938 75.32 186.75C75.1794 186.562 74.9971 186.417 74.7731 186.312C74.5492 186.208 74.2835 186.156 73.9762 186.156C73.6794 186.156 73.4216 186.224 73.2028 186.359C72.9893 186.49 72.8096 186.669 72.6637 186.898C72.5231 187.128 72.4164 187.398 72.3434 187.711C72.2705 188.018 72.2341 188.352 72.2341 188.711ZM83.5213 193.156C82.865 193.156 82.2765 193.052 81.7556 192.844C81.2348 192.63 80.7921 192.336 80.4275 191.961C80.0681 191.586 79.7921 191.151 79.5994 190.656C79.4067 190.156 79.3103 189.625 79.3103 189.062V188.75C79.3103 188.109 79.4015 187.523 79.5838 186.992C79.766 186.461 80.0265 186 80.365 185.609C80.7088 185.219 81.1254 184.919 81.615 184.711C82.1046 184.497 82.6567 184.391 83.2713 184.391C83.8702 184.391 84.4015 184.49 84.865 184.688C85.3285 184.885 85.7166 185.167 86.0291 185.531C86.3468 185.896 86.5864 186.333 86.7478 186.844C86.9093 187.349 86.99 187.911 86.99 188.531V189.469H80.2713V187.969H84.7791V187.797C84.7791 187.484 84.7218 187.206 84.6072 186.961C84.4978 186.711 84.3311 186.513 84.1072 186.367C83.8832 186.221 83.5968 186.148 83.2478 186.148C82.9509 186.148 82.6957 186.214 82.4822 186.344C82.2686 186.474 82.0942 186.656 81.9588 186.891C81.8285 187.125 81.7296 187.401 81.6619 187.719C81.5994 188.031 81.5681 188.375 81.5681 188.75V189.062C81.5681 189.401 81.615 189.714 81.7088 190C81.8077 190.286 81.9457 190.534 82.1228 190.742C82.3051 190.951 82.5239 191.112 82.7791 191.227C83.0395 191.341 83.3338 191.398 83.6619 191.398C84.0681 191.398 84.4457 191.32 84.7947 191.164C85.1489 191.003 85.4535 190.76 85.7088 190.438L86.8025 191.625C86.6254 191.88 86.3832 192.125 86.0759 192.359C85.7739 192.594 85.4093 192.786 84.9822 192.938C84.5551 193.083 84.0681 193.156 83.5213 193.156ZM90.6913 186.297V193H88.4334V184.547H90.5506L90.6913 186.297ZM90.3788 188.477H89.7538C89.7538 187.888 89.8241 187.346 89.9647 186.852C90.1105 186.352 90.3215 185.919 90.5975 185.555C90.8788 185.185 91.2251 184.898 91.6366 184.695C92.048 184.492 92.5246 184.391 93.0663 184.391C93.4413 184.391 93.785 184.448 94.0975 184.562C94.41 184.672 94.6782 184.846 94.9022 185.086C95.1314 185.32 95.3084 185.628 95.4334 186.008C95.5584 186.383 95.6209 186.833 95.6209 187.359V193H93.3709V187.609C93.3709 187.224 93.3189 186.927 93.2147 186.719C93.1105 186.51 92.9621 186.365 92.7694 186.281C92.5819 186.198 92.3553 186.156 92.0897 186.156C91.798 186.156 91.5428 186.216 91.3241 186.336C91.1105 186.456 90.9334 186.622 90.7928 186.836C90.6522 187.044 90.548 187.289 90.4803 187.57C90.4126 187.852 90.3788 188.154 90.3788 188.477ZM95.41 188.219L94.6053 188.32C94.6053 187.768 94.673 187.255 94.8084 186.781C94.9491 186.307 95.1548 185.891 95.4256 185.531C95.7017 185.172 96.0428 184.893 96.4491 184.695C96.8553 184.492 97.3241 184.391 97.8553 184.391C98.2616 184.391 98.6314 184.451 98.9647 184.57C99.298 184.685 99.5819 184.87 99.8163 185.125C100.056 185.375 100.238 185.703 100.363 186.109C100.493 186.516 100.558 187.013 100.558 187.602V193H98.3006V187.602C98.3006 187.211 98.2485 186.914 98.1444 186.711C98.0454 186.503 97.8996 186.359 97.7069 186.281C97.5194 186.198 97.2954 186.156 97.035 186.156C96.7642 186.156 96.5272 186.211 96.3241 186.32C96.1209 186.424 95.9517 186.57 95.8163 186.758C95.6808 186.945 95.5793 187.164 95.5116 187.414C95.4439 187.659 95.41 187.927 95.41 188.219ZM111.617 191.156V181H113.883V193H111.844L111.617 191.156ZM106.273 188.875V188.711C106.273 188.065 106.346 187.479 106.492 186.953C106.638 186.422 106.852 185.966 107.133 185.586C107.414 185.206 107.76 184.911 108.172 184.703C108.583 184.495 109.052 184.391 109.578 184.391C110.073 184.391 110.505 184.495 110.875 184.703C111.25 184.911 111.568 185.208 111.828 185.594C112.094 185.974 112.307 186.424 112.469 186.945C112.63 187.461 112.747 188.026 112.82 188.641V189C112.747 189.589 112.63 190.135 112.469 190.641C112.307 191.146 112.094 191.589 111.828 191.969C111.568 192.344 111.25 192.635 110.875 192.844C110.5 193.052 110.062 193.156 109.562 193.156C109.036 193.156 108.568 193.049 108.156 192.836C107.75 192.622 107.406 192.323 107.125 191.938C106.849 191.552 106.638 191.099 106.492 190.578C106.346 190.057 106.273 189.49 106.273 188.875ZM108.523 188.711V188.875C108.523 189.224 108.549 189.549 108.602 189.852C108.659 190.154 108.75 190.422 108.875 190.656C109.005 190.885 109.172 191.065 109.375 191.195C109.583 191.32 109.836 191.383 110.133 191.383C110.518 191.383 110.836 191.297 111.086 191.125C111.336 190.948 111.526 190.706 111.656 190.398C111.792 190.091 111.87 189.737 111.891 189.336V188.312C111.875 187.984 111.828 187.69 111.75 187.43C111.677 187.164 111.568 186.938 111.422 186.75C111.281 186.562 111.104 186.417 110.891 186.312C110.682 186.208 110.435 186.156 110.148 186.156C109.857 186.156 109.607 186.224 109.398 186.359C109.19 186.49 109.021 186.669 108.891 186.898C108.766 187.128 108.672 187.398 108.609 187.711C108.552 188.018 108.523 188.352 108.523 188.711ZM119.701 193.156C119.045 193.156 118.456 193.052 117.936 192.844C117.415 192.63 116.972 192.336 116.607 191.961C116.248 191.586 115.972 191.151 115.779 190.656C115.587 190.156 115.49 189.625 115.49 189.062V188.75C115.49 188.109 115.581 187.523 115.764 186.992C115.946 186.461 116.206 186 116.545 185.609C116.889 185.219 117.305 184.919 117.795 184.711C118.285 184.497 118.837 184.391 119.451 184.391C120.05 184.391 120.581 184.49 121.045 184.688C121.509 184.885 121.897 185.167 122.209 185.531C122.527 185.896 122.766 186.333 122.928 186.844C123.089 187.349 123.17 187.911 123.17 188.531V189.469H116.451V187.969H120.959V187.797C120.959 187.484 120.902 187.206 120.787 186.961C120.678 186.711 120.511 186.513 120.287 186.367C120.063 186.221 119.777 186.148 119.428 186.148C119.131 186.148 118.876 186.214 118.662 186.344C118.449 186.474 118.274 186.656 118.139 186.891C118.009 187.125 117.91 187.401 117.842 187.719C117.779 188.031 117.748 188.375 117.748 188.75V189.062C117.748 189.401 117.795 189.714 117.889 190C117.988 190.286 118.126 190.534 118.303 190.742C118.485 190.951 118.704 191.112 118.959 191.227C119.219 191.341 119.514 191.398 119.842 191.398C120.248 191.398 120.626 191.32 120.975 191.164C121.329 191.003 121.634 190.76 121.889 190.438L122.982 191.625C122.805 191.88 122.563 192.125 122.256 192.359C121.954 192.594 121.589 192.786 121.162 192.938C120.735 193.083 120.248 193.156 119.701 193.156ZM135.51 189.227H137.846C137.799 189.992 137.588 190.672 137.213 191.266C136.843 191.859 136.325 192.323 135.658 192.656C134.997 192.99 134.2 193.156 133.268 193.156C132.539 193.156 131.885 193.031 131.307 192.781C130.729 192.526 130.234 192.161 129.822 191.688C129.416 191.214 129.106 190.641 128.893 189.969C128.679 189.297 128.572 188.544 128.572 187.711V186.922C128.572 186.089 128.682 185.336 128.901 184.664C129.125 183.987 129.442 183.411 129.854 182.938C130.27 182.464 130.768 182.099 131.346 181.844C131.924 181.589 132.57 181.461 133.283 181.461C134.231 181.461 135.031 181.633 135.682 181.977C136.338 182.32 136.846 182.794 137.205 183.398C137.57 184.003 137.789 184.69 137.862 185.461H135.518C135.492 185.003 135.401 184.615 135.244 184.297C135.088 183.974 134.851 183.732 134.533 183.57C134.221 183.404 133.804 183.32 133.283 183.32C132.893 183.32 132.552 183.393 132.26 183.539C131.968 183.685 131.724 183.906 131.526 184.203C131.328 184.5 131.179 184.875 131.08 185.328C130.987 185.776 130.94 186.302 130.94 186.906V187.711C130.94 188.299 130.984 188.818 131.072 189.266C131.161 189.708 131.296 190.083 131.479 190.391C131.666 190.693 131.906 190.922 132.197 191.078C132.494 191.229 132.851 191.305 133.268 191.305C133.757 191.305 134.161 191.227 134.479 191.07C134.796 190.914 135.039 190.682 135.205 190.375C135.377 190.068 135.479 189.685 135.51 189.227ZM143.977 191.094V187.328C143.977 187.057 143.933 186.826 143.844 186.633C143.756 186.435 143.618 186.281 143.43 186.172C143.248 186.062 143.011 186.008 142.719 186.008C142.469 186.008 142.253 186.052 142.071 186.141C141.888 186.224 141.748 186.346 141.649 186.508C141.55 186.664 141.5 186.849 141.5 187.062H139.25C139.25 186.703 139.334 186.362 139.5 186.039C139.667 185.716 139.909 185.432 140.227 185.188C140.545 184.938 140.922 184.742 141.36 184.602C141.802 184.461 142.297 184.391 142.844 184.391C143.5 184.391 144.084 184.5 144.594 184.719C145.104 184.938 145.506 185.266 145.797 185.703C146.094 186.141 146.243 186.688 146.243 187.344V190.961C146.243 191.424 146.271 191.805 146.328 192.102C146.386 192.393 146.469 192.648 146.578 192.867V193H144.305C144.196 192.771 144.112 192.484 144.055 192.141C144.003 191.792 143.977 191.443 143.977 191.094ZM144.274 187.852L144.289 189.125H143.032C142.735 189.125 142.477 189.159 142.258 189.227C142.039 189.294 141.86 189.391 141.719 189.516C141.578 189.635 141.474 189.776 141.407 189.938C141.344 190.099 141.313 190.276 141.313 190.469C141.313 190.661 141.357 190.836 141.446 190.992C141.534 191.143 141.662 191.263 141.828 191.352C141.995 191.435 142.19 191.477 142.414 191.477C142.753 191.477 143.047 191.409 143.297 191.273C143.547 191.138 143.74 190.971 143.875 190.773C144.016 190.576 144.089 190.388 144.094 190.211L144.688 191.164C144.604 191.378 144.49 191.599 144.344 191.828C144.203 192.057 144.024 192.273 143.805 192.477C143.586 192.674 143.323 192.839 143.016 192.969C142.709 193.094 142.344 193.156 141.922 193.156C141.386 193.156 140.899 193.049 140.461 192.836C140.029 192.617 139.685 192.318 139.43 191.938C139.18 191.552 139.055 191.115 139.055 190.625C139.055 190.182 139.138 189.789 139.305 189.445C139.472 189.102 139.716 188.812 140.039 188.578C140.368 188.339 140.776 188.159 141.266 188.039C141.756 187.914 142.323 187.852 142.969 187.852H144.274ZM150.397 186.172V196.25H148.147V184.547H150.233L150.397 186.172ZM155.748 188.68V188.844C155.748 189.458 155.676 190.029 155.53 190.555C155.389 191.081 155.181 191.539 154.905 191.93C154.629 192.315 154.285 192.617 153.873 192.836C153.467 193.049 152.998 193.156 152.467 193.156C151.952 193.156 151.504 193.052 151.123 192.844C150.743 192.635 150.423 192.344 150.163 191.969C149.907 191.589 149.702 191.148 149.545 190.648C149.389 190.148 149.269 189.612 149.186 189.039V188.609C149.269 187.995 149.389 187.432 149.545 186.922C149.702 186.406 149.907 185.961 150.163 185.586C150.423 185.206 150.741 184.911 151.116 184.703C151.496 184.495 151.941 184.391 152.452 184.391C152.988 184.391 153.459 184.492 153.866 184.695C154.277 184.898 154.621 185.19 154.897 185.57C155.178 185.951 155.389 186.404 155.53 186.93C155.676 187.456 155.748 188.039 155.748 188.68ZM153.491 188.844V188.68C153.491 188.32 153.459 187.99 153.397 187.688C153.34 187.38 153.246 187.112 153.116 186.883C152.991 186.654 152.824 186.477 152.616 186.352C152.413 186.221 152.165 186.156 151.873 186.156C151.566 186.156 151.303 186.206 151.084 186.305C150.871 186.404 150.696 186.547 150.561 186.734C150.426 186.922 150.324 187.146 150.256 187.406C150.189 187.667 150.147 187.961 150.131 188.289V189.375C150.157 189.76 150.23 190.107 150.35 190.414C150.47 190.716 150.655 190.956 150.905 191.133C151.155 191.31 151.483 191.398 151.889 191.398C152.186 191.398 152.436 191.333 152.639 191.203C152.842 191.068 153.006 190.883 153.131 190.648C153.261 190.414 153.353 190.143 153.405 189.836C153.462 189.529 153.491 189.198 153.491 188.844ZM161.879 191.094V187.328C161.879 187.057 161.835 186.826 161.747 186.633C161.658 186.435 161.52 186.281 161.333 186.172C161.15 186.062 160.913 186.008 160.622 186.008C160.372 186.008 160.155 186.052 159.973 186.141C159.791 186.224 159.65 186.346 159.551 186.508C159.452 186.664 159.403 186.849 159.403 187.062H157.153C157.153 186.703 157.236 186.362 157.403 186.039C157.569 185.716 157.812 185.432 158.129 185.188C158.447 184.938 158.825 184.742 159.262 184.602C159.705 184.461 160.2 184.391 160.747 184.391C161.403 184.391 161.986 184.5 162.497 184.719C163.007 184.938 163.408 185.266 163.7 185.703C163.997 186.141 164.145 186.688 164.145 187.344V190.961C164.145 191.424 164.174 191.805 164.231 192.102C164.288 192.393 164.372 192.648 164.481 192.867V193H162.208C162.098 192.771 162.015 192.484 161.958 192.141C161.905 191.792 161.879 191.443 161.879 191.094ZM162.176 187.852L162.192 189.125H160.934C160.637 189.125 160.379 189.159 160.161 189.227C159.942 189.294 159.762 189.391 159.622 189.516C159.481 189.635 159.377 189.776 159.309 189.938C159.247 190.099 159.215 190.276 159.215 190.469C159.215 190.661 159.26 190.836 159.348 190.992C159.437 191.143 159.564 191.263 159.731 191.352C159.898 191.435 160.093 191.477 160.317 191.477C160.655 191.477 160.95 191.409 161.2 191.273C161.45 191.138 161.642 190.971 161.778 190.773C161.918 190.576 161.991 190.388 161.997 190.211L162.59 191.164C162.507 191.378 162.392 191.599 162.247 191.828C162.106 192.057 161.926 192.273 161.708 192.477C161.489 192.674 161.226 192.839 160.918 192.969C160.611 193.094 160.247 193.156 159.825 193.156C159.288 193.156 158.801 193.049 158.364 192.836C157.931 192.617 157.588 192.318 157.333 191.938C157.083 191.552 156.958 191.115 156.958 190.625C156.958 190.182 157.041 189.789 157.208 189.445C157.374 189.102 157.619 188.812 157.942 188.578C158.27 188.339 158.679 188.159 159.168 188.039C159.658 187.914 160.226 187.852 160.872 187.852H162.176ZM58.44 215.156V205H60.7056V217H58.6666L58.44 215.156ZM53.0962 212.875V212.711C53.0962 212.065 53.1692 211.479 53.315 210.953C53.4608 210.422 53.6744 209.966 53.9556 209.586C54.2369 209.206 54.5832 208.911 54.9947 208.703C55.4061 208.495 55.8749 208.391 56.4009 208.391C56.8957 208.391 57.328 208.495 57.6978 208.703C58.0728 208.911 58.3905 209.208 58.6509 209.594C58.9166 209.974 59.1301 210.424 59.2916 210.945C59.453 211.461 59.5702 212.026 59.6431 212.641V213C59.5702 213.589 59.453 214.135 59.2916 214.641C59.1301 215.146 58.9166 215.589 58.6509 215.969C58.3905 216.344 58.0728 216.635 57.6978 216.844C57.3228 217.052 56.8853 217.156 56.3853 217.156C55.8593 217.156 55.3905 217.049 54.9791 216.836C54.5728 216.622 54.2291 216.323 53.9478 215.938C53.6718 215.552 53.4608 215.099 53.315 214.578C53.1692 214.057 53.0962 213.49 53.0962 212.875ZM55.3462 212.711V212.875C55.3462 213.224 55.3723 213.549 55.4244 213.852C55.4817 214.154 55.5728 214.422 55.6978 214.656C55.828 214.885 55.9947 215.065 56.1978 215.195C56.4061 215.32 56.6587 215.383 56.9556 215.383C57.341 215.383 57.6587 215.297 57.9087 215.125C58.1587 214.948 58.3489 214.706 58.4791 214.398C58.6145 214.091 58.6926 213.737 58.7134 213.336V212.312C58.6978 211.984 58.6509 211.69 58.5728 211.43C58.4999 211.164 58.3905 210.938 58.2447 210.75C58.1041 210.562 57.927 210.417 57.7134 210.312C57.5051 210.208 57.2577 210.156 56.9712 210.156C56.6796 210.156 56.4296 210.224 56.2212 210.359C56.0129 210.49 55.8436 210.669 55.7134 210.898C55.5884 211.128 55.4947 211.398 55.4322 211.711C55.3749 212.018 55.3462 212.352 55.3462 212.711ZM66.5241 217.156C65.8678 217.156 65.2793 217.052 64.7584 216.844C64.2376 216.63 63.7949 216.336 63.4303 215.961C63.0709 215.586 62.7949 215.151 62.6022 214.656C62.4095 214.156 62.3131 213.625 62.3131 213.062V212.75C62.3131 212.109 62.4043 211.523 62.5866 210.992C62.7689 210.461 63.0293 210 63.3678 209.609C63.7116 209.219 64.1282 208.919 64.6178 208.711C65.1074 208.497 65.6595 208.391 66.2741 208.391C66.873 208.391 67.4043 208.49 67.8678 208.688C68.3314 208.885 68.7194 209.167 69.0319 209.531C69.3496 209.896 69.5892 210.333 69.7506 210.844C69.9121 211.349 69.9928 211.911 69.9928 212.531V213.469H63.2741V211.969H67.7819V211.797C67.7819 211.484 67.7246 211.206 67.61 210.961C67.5006 210.711 67.334 210.513 67.11 210.367C66.886 210.221 66.5996 210.148 66.2506 210.148C65.9538 210.148 65.6985 210.214 65.485 210.344C65.2715 210.474 65.097 210.656 64.9616 210.891C64.8314 211.125 64.7324 211.401 64.6647 211.719C64.6022 212.031 64.5709 212.375 64.5709 212.75V213.062C64.5709 213.401 64.6178 213.714 64.7116 214C64.8105 214.286 64.9485 214.534 65.1256 214.742C65.3079 214.951 65.5267 215.112 65.7819 215.227C66.0423 215.341 66.3366 215.398 66.6647 215.398C67.0709 215.398 67.4485 215.32 67.7975 215.164C68.1517 215.003 68.4564 214.76 68.7116 214.438L69.8053 215.625C69.6282 215.88 69.386 216.125 69.0788 216.359C68.7767 216.594 68.4121 216.786 67.985 216.938C67.5579 217.083 67.0709 217.156 66.5241 217.156ZM76.0144 214.664C76.0144 214.503 75.9675 214.357 75.8737 214.227C75.78 214.096 75.6055 213.977 75.3503 213.867C75.1003 213.753 74.7383 213.648 74.2644 213.555C73.8373 213.461 73.4389 213.344 73.0691 213.203C72.7045 213.057 72.3868 212.883 72.1159 212.68C71.8503 212.477 71.642 212.237 71.4909 211.961C71.3399 211.68 71.2644 211.359 71.2644 211C71.2644 210.646 71.3399 210.312 71.4909 210C71.6472 209.688 71.8685 209.411 72.155 209.172C72.4467 208.927 72.8008 208.737 73.2175 208.602C73.6394 208.461 74.1133 208.391 74.6394 208.391C75.3737 208.391 76.004 208.508 76.53 208.742C77.0612 208.977 77.4675 209.299 77.7487 209.711C78.0352 210.117 78.1784 210.581 78.1784 211.102H75.9284C75.9284 210.883 75.8816 210.688 75.7878 210.516C75.6993 210.339 75.5586 210.201 75.3659 210.102C75.1784 209.997 74.9336 209.945 74.6316 209.945C74.3816 209.945 74.1654 209.99 73.9831 210.078C73.8008 210.161 73.6602 210.276 73.5612 210.422C73.4675 210.562 73.4206 210.719 73.4206 210.891C73.4206 211.021 73.4467 211.138 73.4987 211.242C73.556 211.341 73.6472 211.432 73.7722 211.516C73.8972 211.599 74.0586 211.677 74.2566 211.75C74.4597 211.818 74.7097 211.88 75.0066 211.938C75.6159 212.062 76.1602 212.227 76.6394 212.43C77.1185 212.628 77.4987 212.898 77.78 213.242C78.0612 213.581 78.2019 214.026 78.2019 214.578C78.2019 214.953 78.1185 215.297 77.9519 215.609C77.7852 215.922 77.5456 216.195 77.2331 216.43C76.9206 216.659 76.5456 216.839 76.1081 216.969C75.6758 217.094 75.1889 217.156 74.6472 217.156C73.8607 217.156 73.1941 217.016 72.6472 216.734C72.1055 216.453 71.6941 216.096 71.4128 215.664C71.1368 215.227 70.9987 214.779 70.9987 214.32H73.1316C73.142 214.628 73.2201 214.875 73.3659 215.062C73.517 215.25 73.7071 215.385 73.9362 215.469C74.1706 215.552 74.4232 215.594 74.6941 215.594C74.9857 215.594 75.2279 215.555 75.4206 215.477C75.6133 215.393 75.7592 215.284 75.8581 215.148C75.9623 215.008 76.0144 214.846 76.0144 214.664ZM83.325 215.398C83.601 215.398 83.8458 215.346 84.0594 215.242C84.2729 215.133 84.4396 214.982 84.5594 214.789C84.6844 214.591 84.7495 214.359 84.7547 214.094H86.8719C86.8667 214.688 86.7078 215.216 86.3953 215.68C86.0828 216.138 85.6635 216.5 85.1375 216.766C84.6115 217.026 84.0229 217.156 83.3719 217.156C82.7156 217.156 82.1427 217.047 81.6531 216.828C81.1687 216.609 80.7651 216.307 80.4422 215.922C80.1193 215.531 79.8771 215.078 79.7156 214.562C79.5542 214.042 79.4734 213.484 79.4734 212.891V212.664C79.4734 212.065 79.5542 211.508 79.7156 210.992C79.8771 210.471 80.1193 210.018 80.4422 209.633C80.7651 209.242 81.1687 208.938 81.6531 208.719C82.1375 208.5 82.7052 208.391 83.3562 208.391C84.049 208.391 84.6557 208.523 85.1766 208.789C85.7026 209.055 86.1141 209.435 86.4109 209.93C86.713 210.419 86.8667 211 86.8719 211.672H84.7547C84.7495 211.391 84.6896 211.135 84.575 210.906C84.4656 210.677 84.3042 210.495 84.0906 210.359C83.8823 210.219 83.6245 210.148 83.3172 210.148C82.9891 210.148 82.7208 210.219 82.5125 210.359C82.3042 210.495 82.1427 210.682 82.0281 210.922C81.9135 211.156 81.8328 211.424 81.7859 211.727C81.7443 212.023 81.7234 212.336 81.7234 212.664V212.891C81.7234 213.219 81.7443 213.534 81.7859 213.836C81.8276 214.138 81.9057 214.406 82.0203 214.641C82.1401 214.875 82.3042 215.06 82.5125 215.195C82.7208 215.331 82.9917 215.398 83.325 215.398ZM87.9872 212.859V212.695C87.9872 212.076 88.0757 211.505 88.2528 210.984C88.4299 210.458 88.6877 210.003 89.0262 209.617C89.3648 209.232 89.7815 208.932 90.2762 208.719C90.771 208.5 91.3387 208.391 91.9794 208.391C92.62 208.391 93.1903 208.5 93.6903 208.719C94.1903 208.932 94.6096 209.232 94.9481 209.617C95.2919 210.003 95.5523 210.458 95.7294 210.984C95.9065 211.505 95.995 212.076 95.995 212.695V212.859C95.995 213.474 95.9065 214.044 95.7294 214.57C95.5523 215.091 95.2919 215.547 94.9481 215.938C94.6096 216.323 94.1929 216.622 93.6981 216.836C93.2033 217.049 92.6356 217.156 91.995 217.156C91.3544 217.156 90.7841 217.049 90.2841 216.836C89.7893 216.622 89.37 216.323 89.0262 215.938C88.6877 215.547 88.4299 215.091 88.2528 214.57C88.0757 214.044 87.9872 213.474 87.9872 212.859ZM90.2372 212.695V212.859C90.2372 213.214 90.2684 213.544 90.3309 213.852C90.3934 214.159 90.4924 214.43 90.6278 214.664C90.7684 214.893 90.9507 215.073 91.1747 215.203C91.3986 215.333 91.6721 215.398 91.995 215.398C92.3075 215.398 92.5757 215.333 92.7997 215.203C93.0236 215.073 93.2033 214.893 93.3387 214.664C93.4742 214.43 93.5731 214.159 93.6356 213.852C93.7033 213.544 93.7372 213.214 93.7372 212.859V212.695C93.7372 212.352 93.7033 212.029 93.6356 211.727C93.5731 211.419 93.4716 211.148 93.3309 210.914C93.1955 210.674 93.0158 210.487 92.7919 210.352C92.5679 210.216 92.2971 210.148 91.9794 210.148C91.6617 210.148 91.3908 210.216 91.1669 210.352C90.9481 210.487 90.7684 210.674 90.6278 210.914C90.4924 211.148 90.3934 211.419 90.3309 211.727C90.2684 212.029 90.2372 212.352 90.2372 212.695ZM99.7509 210.352V217H97.5009V208.547H99.6103L99.7509 210.352ZM99.4228 212.477H98.8134C98.8134 211.852 98.8942 211.289 99.0556 210.789C99.2171 210.284 99.4436 209.854 99.7353 209.5C100.027 209.141 100.373 208.867 100.774 208.68C101.181 208.487 101.634 208.391 102.134 208.391C102.53 208.391 102.892 208.448 103.22 208.562C103.548 208.677 103.829 208.859 104.063 209.109C104.303 209.359 104.485 209.69 104.61 210.102C104.741 210.513 104.806 211.016 104.806 211.609V217H102.54V211.602C102.54 211.227 102.488 210.935 102.384 210.727C102.28 210.518 102.126 210.372 101.923 210.289C101.725 210.201 101.48 210.156 101.188 210.156C100.886 210.156 100.623 210.216 100.399 210.336C100.181 210.456 99.9983 210.622 99.8525 210.836C99.7119 211.044 99.6051 211.289 99.5322 211.57C99.4593 211.852 99.4228 212.154 99.4228 212.477ZM108.882 205V217H106.632V205H108.882ZM108.562 212.477H107.944C107.95 211.888 108.028 211.346 108.179 210.852C108.33 210.352 108.546 209.919 108.827 209.555C109.108 209.185 109.444 208.898 109.835 208.695C110.231 208.492 110.668 208.391 111.147 208.391C111.564 208.391 111.942 208.451 112.28 208.57C112.624 208.685 112.918 208.872 113.163 209.133C113.413 209.388 113.606 209.724 113.741 210.141C113.877 210.557 113.944 211.062 113.944 211.656V217H111.679V211.641C111.679 211.266 111.624 210.971 111.515 210.758C111.411 210.539 111.257 210.385 111.054 210.297C110.856 210.203 110.611 210.156 110.319 210.156C109.996 210.156 109.72 210.216 109.491 210.336C109.267 210.456 109.088 210.622 108.952 210.836C108.817 211.044 108.718 211.289 108.655 211.57C108.593 211.852 108.562 212.154 108.562 212.477ZM119.716 217.156C119.06 217.156 118.471 217.052 117.95 216.844C117.429 216.63 116.987 216.336 116.622 215.961C116.263 215.586 115.987 215.151 115.794 214.656C115.601 214.156 115.505 213.625 115.505 213.062V212.75C115.505 212.109 115.596 211.523 115.778 210.992C115.961 210.461 116.221 210 116.56 209.609C116.903 209.219 117.32 208.919 117.81 208.711C118.299 208.497 118.851 208.391 119.466 208.391C120.065 208.391 120.596 208.49 121.06 208.688C121.523 208.885 121.911 209.167 122.224 209.531C122.541 209.896 122.781 210.333 122.942 210.844C123.104 211.349 123.185 211.911 123.185 212.531V213.469H116.466V211.969H120.974V211.797C120.974 211.484 120.916 211.206 120.802 210.961C120.692 210.711 120.526 210.513 120.302 210.367C120.078 210.221 119.791 210.148 119.442 210.148C119.146 210.148 118.89 210.214 118.677 210.344C118.463 210.474 118.289 210.656 118.153 210.891C118.023 211.125 117.924 211.401 117.857 211.719C117.794 212.031 117.763 212.375 117.763 212.75V213.062C117.763 213.401 117.81 213.714 117.903 214C118.002 214.286 118.14 214.534 118.317 214.742C118.5 214.951 118.719 215.112 118.974 215.227C119.234 215.341 119.528 215.398 119.857 215.398C120.263 215.398 120.64 215.32 120.989 215.164C121.344 215.003 121.648 214.76 121.903 214.438L122.997 215.625C122.82 215.88 122.578 216.125 122.271 216.359C121.969 216.594 121.604 216.786 121.177 216.938C120.75 217.083 120.263 217.156 119.716 217.156ZM128.128 215.398C128.404 215.398 128.649 215.346 128.863 215.242C129.076 215.133 129.243 214.982 129.363 214.789C129.488 214.591 129.553 214.359 129.558 214.094H131.675C131.67 214.688 131.511 215.216 131.198 215.68C130.886 216.138 130.467 216.5 129.941 216.766C129.415 217.026 128.826 217.156 128.175 217.156C127.519 217.156 126.946 217.047 126.456 216.828C125.972 216.609 125.568 216.307 125.245 215.922C124.922 215.531 124.68 215.078 124.519 214.562C124.357 214.042 124.277 213.484 124.277 212.891V212.664C124.277 212.065 124.357 211.508 124.519 210.992C124.68 210.471 124.922 210.018 125.245 209.633C125.568 209.242 125.972 208.938 126.456 208.719C126.941 208.5 127.508 208.391 128.159 208.391C128.852 208.391 129.459 208.523 129.98 208.789C130.506 209.055 130.917 209.435 131.214 209.93C131.516 210.419 131.67 211 131.675 211.672H129.558C129.553 211.391 129.493 211.135 129.378 210.906C129.269 210.677 129.107 210.495 128.894 210.359C128.685 210.219 128.428 210.148 128.12 210.148C127.792 210.148 127.524 210.219 127.316 210.359C127.107 210.495 126.946 210.682 126.831 210.922C126.717 211.156 126.636 211.424 126.589 211.727C126.547 212.023 126.527 212.336 126.527 212.664V212.891C126.527 213.219 126.547 213.534 126.589 213.836C126.631 214.138 126.709 214.406 126.823 214.641C126.943 214.875 127.107 215.06 127.316 215.195C127.524 215.331 127.795 215.398 128.128 215.398ZM135.525 208.547V217H133.267V208.547H135.525ZM133.126 206.344C133.126 206.016 133.241 205.745 133.47 205.531C133.699 205.318 134.006 205.211 134.392 205.211C134.772 205.211 135.077 205.318 135.306 205.531C135.54 205.745 135.658 206.016 135.658 206.344C135.658 206.672 135.54 206.943 135.306 207.156C135.077 207.37 134.772 207.477 134.392 207.477C134.006 207.477 133.699 207.37 133.47 207.156C133.241 206.943 133.126 206.672 133.126 206.344ZM142.546 215.156V205H144.812V217H142.773L142.546 215.156ZM137.202 212.875V212.711C137.202 212.065 137.275 211.479 137.421 210.953C137.567 210.422 137.781 209.966 138.062 209.586C138.343 209.206 138.689 208.911 139.101 208.703C139.512 208.495 139.981 208.391 140.507 208.391C141.002 208.391 141.434 208.495 141.804 208.703C142.179 208.911 142.497 209.208 142.757 209.594C143.023 209.974 143.236 210.424 143.398 210.945C143.559 211.461 143.676 212.026 143.749 212.641V213C143.676 213.589 143.559 214.135 143.398 214.641C143.236 215.146 143.023 215.589 142.757 215.969C142.497 216.344 142.179 216.635 141.804 216.844C141.429 217.052 140.992 217.156 140.492 217.156C139.966 217.156 139.497 217.049 139.085 216.836C138.679 216.622 138.335 216.323 138.054 215.938C137.778 215.552 137.567 215.099 137.421 214.578C137.275 214.057 137.202 213.49 137.202 212.875ZM139.452 212.711V212.875C139.452 213.224 139.479 213.549 139.531 213.852C139.588 214.154 139.679 214.422 139.804 214.656C139.934 214.885 140.101 215.065 140.304 215.195C140.512 215.32 140.765 215.383 141.062 215.383C141.447 215.383 141.765 215.297 142.015 215.125C142.265 214.948 142.455 214.706 142.585 214.398C142.721 214.091 142.799 213.737 142.82 213.336V212.312C142.804 211.984 142.757 211.69 142.679 211.43C142.606 211.164 142.497 210.938 142.351 210.75C142.21 210.562 142.033 210.417 141.82 210.312C141.611 210.208 141.364 210.156 141.077 210.156C140.786 210.156 140.536 210.224 140.327 210.359C140.119 210.49 139.95 210.669 139.82 210.898C139.695 211.128 139.601 211.398 139.538 211.711C139.481 212.018 139.452 212.352 139.452 212.711ZM151.302 215.094V211.328C151.302 211.057 151.258 210.826 151.169 210.633C151.081 210.435 150.943 210.281 150.755 210.172C150.573 210.062 150.336 210.008 150.044 210.008C149.794 210.008 149.578 210.052 149.396 210.141C149.214 210.224 149.073 210.346 148.974 210.508C148.875 210.664 148.826 210.849 148.826 211.062H146.576C146.576 210.703 146.659 210.362 146.826 210.039C146.992 209.716 147.234 209.432 147.552 209.188C147.87 208.938 148.247 208.742 148.685 208.602C149.128 208.461 149.622 208.391 150.169 208.391C150.826 208.391 151.409 208.5 151.919 208.719C152.43 208.938 152.831 209.266 153.122 209.703C153.419 210.141 153.568 210.688 153.568 211.344V214.961C153.568 215.424 153.596 215.805 153.654 216.102C153.711 216.393 153.794 216.648 153.904 216.867V217H151.63C151.521 216.771 151.438 216.484 151.38 216.141C151.328 215.792 151.302 215.443 151.302 215.094ZM151.599 211.852L151.615 213.125H150.357C150.06 213.125 149.802 213.159 149.583 213.227C149.365 213.294 149.185 213.391 149.044 213.516C148.904 213.635 148.8 213.776 148.732 213.938C148.669 214.099 148.638 214.276 148.638 214.469C148.638 214.661 148.682 214.836 148.771 214.992C148.859 215.143 148.987 215.263 149.154 215.352C149.32 215.435 149.516 215.477 149.74 215.477C150.078 215.477 150.372 215.409 150.622 215.273C150.872 215.138 151.065 214.971 151.201 214.773C151.341 214.576 151.414 214.388 151.419 214.211L152.013 215.164C151.93 215.378 151.815 215.599 151.669 215.828C151.529 216.057 151.349 216.273 151.13 216.477C150.912 216.674 150.649 216.839 150.341 216.969C150.034 217.094 149.669 217.156 149.247 217.156C148.711 217.156 148.224 217.049 147.787 216.836C147.354 216.617 147.011 216.318 146.755 215.938C146.505 215.552 146.38 215.115 146.38 214.625C146.38 214.182 146.464 213.789 146.63 213.445C146.797 213.102 147.042 212.812 147.365 212.578C147.693 212.339 148.102 212.159 148.591 212.039C149.081 211.914 149.649 211.852 150.294 211.852H151.599Z" fill="#59372B"/>
</svg>
